<?xml version="1.0" encoding="UTF-8" standalone="no"?>
<!DOCTYPE svg PUBLIC "-//W3C//DTD SVG 1.1//EN" "http://www.w3.org/Graphics/SVG/1.1/DTD/svg11.dtd">
<svg width="100%" height="100%" viewBox="0 0 448 411" version="1.1" xmlns="http://www.w3.org/2000/svg" xmlns:xlink="http://www.w3.org/1999/xlink" xml:space="preserve" xmlns:serif="http://www.serif.com/" style="fill-rule:evenodd;clip-rule:evenodd;stroke-linejoin:round;stroke-miterlimit:1.41421;">
    <g transform="matrix(1,0,0,1,-2448.13,-1117.86)">
        <g transform="matrix(1,0,0,1,13.4935,8.82877)">
            <rect x="2507.45" y="1257.08" width="164.202" height="25" style="fill:white;"/>
        </g>
        <path d="M2757.96,1527.44L2448.13,1527.44L2448.13,1117.87L2663.25,1117.87L2663.25,1118.17L2663.46,1117.95C2694.9,1147.48 2726.34,1177 2757.78,1206.53L2757.58,1206.74L2757.96,1206.74L2757.96,1280.69C2790.54,1285.45 2820.26,1307.59 2832.75,1338.99C2844.97,1369.71 2838.92,1406.68 2817.75,1432.82L2895.69,1510.14L2878.09,1527.89L2799.46,1449.88C2787.2,1458.43 2772.85,1463.84 2757.96,1465.87L2757.96,1527.44ZM2638.25,1142.87L2473.13,1142.87L2473.13,1502.44L2732.96,1502.44L2732.96,1466.06C2721.64,1464.69 2710.51,1461.3 2700.27,1455.77C2665.45,1437 2644.45,1395.07 2652.82,1354.51C2653.62,1350.65 2654.67,1346.86 2655.97,1343.15L2520.95,1343.15L2520.95,1318.15L2669.24,1318.15C2678.71,1305.36 2691.34,1294.86 2705.88,1288.23C2714.43,1284.33 2723.67,1281.77 2732.96,1280.55L2732.96,1231.74L2638.25,1231.74L2638.25,1142.87ZM2744.66,1304.74C2710.12,1305.06 2677.38,1333.57 2675.95,1370.74C2675.12,1392.24 2685.17,1413.81 2702.07,1427.15C2720.53,1441.72 2746.58,1446 2768.9,1437.89C2789.38,1430.44 2805.93,1412.8 2811.81,1391.78C2820.51,1360.68 2804.3,1324.36 2773.2,1310.63C2764.26,1306.68 2754.49,1304.7 2744.66,1304.74ZM2663.25,1152.05L2663.25,1206.74L2721.49,1206.74L2663.25,1152.05Z" style="fill:white;"/>
        <g transform="matrix(0.546645,0,0,1,1158,112.821)">
            <rect x="2493.3" y="1257.08" width="192.506" height="25" style="fill:white;"/>
        </g>
    </g>
</svg>
