<?xml version="1.0" encoding="UTF-8" standalone="no"?>
<!DOCTYPE svg PUBLIC "-//W3C//DTD SVG 1.1//EN" "http://www.w3.org/Graphics/SVG/1.1/DTD/svg11.dtd">
<svg width="100%" height="100%" viewBox="0 0 566 444" version="1.1" xmlns="http://www.w3.org/2000/svg" xmlns:xlink="http://www.w3.org/1999/xlink" xml:space="preserve" xmlns:serif="http://www.serif.com/" style="fill-rule:evenodd;clip-rule:evenodd;stroke-linejoin:round;stroke-miterlimit:1.41421;">
    <g transform="matrix(1,0,0,1,-2364.36,-498.798)">
        <g>
            <g transform="matrix(1,0,0,1,1727.5,-153.073)">
                <path d="M896.112,651.871C939.308,652.034 981.961,671.605 1010.23,704.139C1020.1,715.503 1028.26,728.345 1034.38,742.094C1078.02,728.897 1129.35,739.407 1163.7,771.071C1195.94,800.799 1211.06,848.405 1198.28,892.147C1188.55,925.449 1163.56,953.661 1132.18,968.835C1116.99,976.178 1100.25,980.486 1083.63,981.782L964.032,982.147C960.748,981.724 957.445,980.769 955.168,978.499C952.858,976.196 951.931,972.961 951.493,969.647C951.493,951.998 951.553,934.349 951.492,916.7C951.318,898.507 938.531,881.273 921.127,875.973C906.669,871.571 890.017,875.542 879.086,885.964C870.717,893.943 865.83,905.31 865.79,916.998L865.79,969.647C865.359,972.923 864.398,976.217 862.129,978.486C859.827,980.788 856.598,981.711 853.29,982.147C814.016,982.147 774.741,982.333 735.468,982.145C697.8,981.85 661.453,958.724 645.563,923.882C630.62,891.119 635.047,850.298 657.872,821.27C678.292,795.3 712.083,780.575 745.39,783.637C752.611,728.072 792.977,678.63 846.029,660.217C862.105,654.638 878.885,651.848 896.112,651.871ZM909.515,849.131C937.286,849.573 963.414,868.231 972.651,894.435C975.197,901.659 976.467,909.32 976.493,916.956L976.493,957.109L1082.62,956.785C1083.1,956.746 1083.58,956.703 1084.07,956.659C1119.62,953.281 1153.61,931.416 1169.01,898.975C1184.28,866.785 1179.06,826.211 1155.15,798.174C1126.24,764.284 1074.51,752.396 1032.53,769.217L1031.91,769.467L1028.65,770.307C1027.52,770.286 1026.39,770.416 1025.28,770.245C1021.9,769.722 1018.82,767.758 1016.92,765.01C1014.85,762.028 1014.15,758.467 1012.77,755.125C997.524,718.3 964.183,689.646 925.249,680.334C884.775,670.655 839.818,682.379 809.164,711.112C785.242,733.535 770.504,765.151 769.188,798.654L768.669,801.76C767.545,804.291 767.462,805.123 765.433,807.105C763.153,809.333 760.02,810.613 756.896,810.662C754.155,810.705 751.597,809.771 748.922,809.306C717.395,803.833 682.768,820.91 668.592,851.233C656.72,876.628 660.672,908.779 679.223,930.714C693.121,947.148 714.364,957.114 736.118,957.147L840.79,957.147L840.79,916.956C840.885,888.978 859.647,862.108 886.493,852.831C893.875,850.28 901.65,849.057 909.515,849.131Z" style="fill:white;"/>
            </g>
            <path d="M2649.27,894.66L2680.89,863.034C2686.79,868.927 2692.68,874.82 2698.57,880.712L2636.77,942.516L2574.97,880.712L2592.64,863.034L2624.27,894.66L2624.27,759.994L2649.27,759.994L2649.27,894.66Z" style="fill:white;"/>
        </g>
    </g>
</svg>
