<svg viewBox="0 0 468 554" xmlns="http://www.w3.org/2000/svg"><g fill="#6a7080"><path d="m34.23 179.141a33.017 33.017 0 0 0 -24.26 9.969 32.63287 32.63287 0 0 0 -9.97 23.929v142.914a33.00989 33.00989 0 0 0 9.97 24.266 33.01792 33.01792 0 0 0 24.26 9.97 32.50746 32.50746 0 0 0 24.101-9.97 33.31915 33.31915 0 0 0 9.804-24.266v-142.914a32.62738 32.62738 0 0 0 -9.97-23.929 32.64689 32.64689 0 0 0 -23.935-9.969z"/><path d="m309.428 50.847 23.598-43.532q2.32352-4.323-1.658-6.646c-2.883-1.34-5.098-.661-6.646 1.989l-23.928 43.88a166.70218 166.70218 0 0 0 -133.613 0l-23.929-43.88c-1.555-2.65-3.77-3.323-6.646-1.989-2.662 1.561-3.213 3.764-1.658 6.646l23.599 43.532q-35.8935 18.3045-57.167 51.022a128.86434 128.86434 0 0 0 -21.273 71.628h307.426a128.89838 128.89838 0 0 0 -21.273-71.628 146.34053 146.34053 0 0 0 -56.832-51.022zm-136.433 63.318a12.45918 12.45918 0 0 1 -9.143 3.831 11.894 11.894 0 0 1 -8.972-3.831 13.25073 13.25073 0 0 1 0-18.274 11.93692 11.93692 0 0 1 8.972-3.819 12.91759 12.91759 0 0 1 9.143 22.093zm140.086 0a11.91941 11.91941 0 0 1 -8.971 3.831 12.96207 12.96207 0 0 1 0-25.924 11.944 11.944 0 0 1 8.971 3.819 13.25077 13.25077 0 0 1 0 18.274z"/><path d="m81.427 406.804a36.29625 36.29625 0 0 0 36.554 36.555h24.596l.337 75.454a33.03357 33.03357 0 0 0 9.969 24.266 32.63871 32.63871 0 0 0 23.929 9.97 34.04151 34.04151 0 0 0 34.23-34.236v-75.447h45.864v75.447a34.22921 34.22921 0 1 0 68.458 0v-75.447h24.928a36.29822 36.29822 0 0 0 36.225-36.555v-221.361h-305.09z"/><path d="m433.731 179.141a32.93443 32.93443 0 0 0 -23.93 9.804 32.5027 32.5027 0 0 0 -9.969 24.094v142.914a33.009 33.009 0 0 0 9.969 24.266 32.64087 32.64087 0 0 0 23.93 9.97 34.03987 34.03987 0 0 0 34.229-34.236v-142.914a32.49731 32.49731 0 0 0 -9.969-24.094 33.33626 33.33626 0 0 0 -24.26-9.804z"/></g></svg>