<svg viewBox="0 0 137 163" xmlns="http://www.w3.org/2000/svg"><path d="m133.6 126.251a88.07859 88.07859 0 0 1 -8.71 15.66q-6.87 9.795-11.22 13.56-6.72 6.18-14.42 6.35c-3.69 0-8.14-1.05-13.32-3.18a38.22022 38.22022 0 0 0 -14.34-3.17 39.51642 39.51642 0 0 0 -14.746 3.17q-7.893 3.195-12.742 3.35-7.3935.315-14.746-6.52-4.695-4.095-11.735-14.04a97.10126 97.10126 0 0 1 -12.41-24.65 90.25937 90.25937 0 0 1 -5.211-29.378q0-16.2855 7.045-28.068a41.327 41.327 0 0 1 14.755-14.925 39.69235 39.69235 0 0 1 19.948-5.629c3.915 0 9.049 1.211 15.429 3.591 6.362 2.388 10.447 3.599 12.238 3.599 1.339 0 5.877-1.416 13.57-4.239q10.9125-3.927 18.445-3.275 20.445 1.65 30.68 16.153-18.285 11.079-18.1 31.002a34.20057 34.20057 0 0 0 11.23 25.769 36.90382 36.90382 0 0 0 11.22 7.36q-1.35 3.915-2.86 7.51zm-31.26-123.01q0 12.153-8.86 22.669c-7.12 8.324-15.732 13.134-25.071 12.375a25.22166 25.22166 0 0 1 -.188-3.07c0-7.778 3.386-16.102 9.399-22.908a36.192 36.192 0 0 1 11.45-8.597 34.12924 34.12924 0 0 1 13.1-3.71 29.42463 29.42463 0 0 1 .17 3.241z" fill="#6a7080"/></svg>